# xmcd CD database file
#
# Track frame offsets:
#	150
#	14660
#	36182
#
# Disc length: 698 seconds
#
# Revision: 0
# Processed by: cddbd v1.5PL3 Copyright (c) Steve Scherf et al.
# Submitted via: CDex 1.50
#
DISCID=1f02b803
DTITLE=ビイドロ - なれのはて
DYEAR=2004
DGENRE=Rock
TTITLE0=なれのはて
TTITLE1=月光便
TTITLE2=ホソノフ
EXTD=YEAR: 2004
EXTT0=
EXTT1=
EXTT2=
PLAYORDER=
